HIERARCHY
ROOT hip
{
	OFFSET 0.000000 0.000000 0.000000 
	CHANNELS 6 Xposition Yposition Zposition Xrotation Zrotation Yrotation
	JOINT abdomen
	{
		OFFSET 0.000000 3.402643 0.000000 
		CHANNELS 3 Xrotation Zrotation Yrotation
		JOINT chest
		{
			OFFSET 0.000000 8.438565 -0.680529 
			CHANNELS 3 Xrotation Zrotation Yrotation
			JOINT neck
			{
				OFFSET 0.000000 10.207942 -0.272212 
				CHANNELS 3 Xrotation Zrotation Yrotation
				JOINT head
				{
					OFFSET 0.000000 3.130431 0.000000 
					CHANNELS 3 Xrotation Zrotation Yrotation
					End Site
					{
						OFFSET 0.000000 3.130435 0.000000 
					}
				}
			}
			JOINT lCollar
			{
				OFFSET 3.470700 6.669187 -0.816635 
				CHANNELS 3 Yrotation Zrotation Xrotation
				JOINT lShldr
				{
					OFFSET 3.198488 0.000000 0.000000 
					CHANNELS 3 Zrotation Yrotation Xrotation
					JOINT lForeArm
					{
						OFFSET 10.139888 0.000000 0.000000 
						CHANNELS 3 Yrotation Zrotation Xrotation
						JOINT lHand
						{
							OFFSET 8.370511 0.000000 0.000000 
							CHANNELS 3 Zrotation Yrotation Xrotation
							End Site
							{
								OFFSET 4.083176 0.000000 0.000000 
							}
						}
					}
				}
			}
			JOINT rCollar
			{
				OFFSET -3.470700 6.669187 -0.816635 
				CHANNELS 3 Yrotation Zrotation Xrotation
				JOINT rShldr
				{
					OFFSET -3.198488 0.000000 0.000000 
					CHANNELS 3 Zrotation Yrotation Xrotation
					JOINT rForeArm
					{
						OFFSET -10.139888 0.000000 0.000000 
						CHANNELS 3 Yrotation Zrotation Xrotation
						JOINT rHand
						{
							OFFSET -8.370511 0.000000 0.000000 
							CHANNELS 3 Zrotation Yrotation Xrotation
							End Site
							{
								OFFSET -4.083176 0.000000 0.000000 
							}
						}
					}
				}
			}
		}
	}
	JOINT lThigh
	{
		OFFSET 5.308129 -1.633274 1.361059 
		CHANNELS 3 Xrotation Zrotation Yrotation
		JOINT lShin
		{
			OFFSET -2.041588 -20.007561 0.000000 
			CHANNELS 3 Xrotation Zrotation Yrotation
			JOINT lFoot
			{
				OFFSET 0.000000 -19.190928 -1.224953 
				CHANNELS 3 Xrotation Yrotation Zrotation
				End Site
				{
					OFFSET 0.000000 -2.449906 4.627600 
				}
			}
		}
	}
	JOINT rThigh
	{
		OFFSET -5.308129 -1.633274 1.361059 
		CHANNELS 3 Xrotation Zrotation Yrotation
		JOINT rShin
		{
			OFFSET 2.041588 -20.007561 0.000000 
			CHANNELS 3 Xrotation Zrotation Yrotation
			JOINT rFoot
			{
				OFFSET 0.000000 -19.190928 -1.224953 
				CHANNELS 3 Xrotation Yrotation Zrotation
				End Site
				{
					OFFSET 0.000000 -2.449906 4.627600 
				}
			}
		}
	}
}
MOTION
Frames: 11
Frame Time: 0.033333
-1.576858 49.653751 1.989772 1.784124 -0.963308 -12.404175 0.000000 0.000000 0.000000 -5.670079 -1.633480 2.851622 -2.355269 -1.063670 2.197612 12.295753 3.825716 -2.035192 1.371551 -4.623000 -4.484803 -65.854439 -4.560363 6.562658 -59.849369 1.340095 6.815858 -2.246118 3.357948 -3.497107 11.519174 24.990982 -6.403800 27.783768 -4.120487 34.610085 66.297348 -1.214825 8.194942 -1.023250 -5.239738 -3.516121 -5.825299 3.258548 4.149390 11.839807 -4.265986 20.835535 -7.899976 0.028343 -0.244364 1.434515 -8.326343 -9.354590 11.697769 3.718586 -5.858920 -8.435848 -0.597253 7.661128 
-1.550143 49.634403 2.187551 1.087950 -2.006514 -11.931455 0.000000 0.000000 0.000000 -5.103935 -1.353202 2.599577 -2.155535 -1.083373 1.924038 12.295555 3.971937 -2.104034 1.057218 -4.479064 -4.004689 -63.745850 -9.572792 6.163972 -63.258049 2.262280 9.496635 -5.296244 2.940043 -3.464354 13.175130 24.990885 -6.309937 27.314734 -3.026641 32.076786 70.002083 -2.868880 8.287325 -0.990433 -5.756370 -3.516527 -5.573411 4.030913 4.602600 13.395884 -4.054767 19.664059 -8.787585 0.025951 -0.428891 -0.118547 -8.174746 -9.482019 17.009838 4.082592 -4.822902 -8.619471 -0.602571 7.726959 
-1.440699 49.642319 2.161539 1.750261 -1.964827 -12.400245 0.000000 0.000000 0.000000 -5.435179 -1.567802 2.923899 -2.656315 -1.327225 2.109940 12.501288 3.864465 -2.152764 1.088479 -4.674544 -4.299662 -61.617935 -15.012120 6.177093 -66.782677 2.818576 9.236106 -3.538455 1.787971 -3.415525 15.566732 24.992983 -6.958467 27.111557 -2.569439 26.134192 74.692566 -4.960816 12.121438 1.916171 -5.910261 -3.579746 -6.111704 4.071125 4.670510 13.314468 -4.208299 19.956043 -8.876359 0.037032 -0.305412 -4.460921 -9.173382 -9.666403 24.002874 4.423768 -1.702088 -7.971581 -0.536302 7.261346 
-1.398544 49.735462 2.275775 0.407896 -2.577820 -12.141481 0.000000 0.000000 0.000000 -4.322882 -1.615329 2.732202 -1.963400 -1.483555 1.904922 12.326695 3.815647 -2.162515 0.961522 -4.730561 -3.281486 -59.083042 -21.169382 5.373028 -70.013519 3.177433 7.498549 -0.820431 1.114824 -3.453106 17.087271 24.995052 -6.339593 24.376429 -0.658051 21.196484 78.533195 -5.612750 10.008036 0.278708 -5.765302 -3.545704 -3.911448 4.164256 4.903109 11.912233 -3.984027 19.939682 -8.271417 0.017789 -0.109871 -5.769770 -9.946501 -10.319968 29.410299 4.764987 0.819512 -5.670076 -0.338761 6.738111 
-1.413600 49.752438 2.310981 0.518463 -3.187330 -11.453997 0.000000 0.000000 0.000000 -4.206604 -1.424770 2.361103 -2.041327 -1.581541 1.426316 12.309655 3.961576 -2.329457 0.303285 -4.359708 -3.211583 -56.846767 -27.548164 3.231691 -73.436600 3.636257 7.403513 1.068116 1.572049 -3.485550 19.571020 24.992834 -7.031258 20.815613 0.379587 12.970870 83.163803 -5.970282 10.055387 -1.167875 -7.079349 -3.521422 -4.189826 4.814760 5.175962 12.515503 -3.914781 19.022758 -8.554592 0.026619 -0.138056 -8.092705 -10.345888 -10.445611 34.191601 5.223712 4.241112 -3.078130 -0.116675 5.596931 
-1.396345 49.752102 2.352105 0.338639 -3.574781 -11.086494 0.000000 0.000000 0.000000 -3.992272 -1.364441 2.169040 -1.938971 -1.601187 1.240569 12.672897 4.068768 -2.378842 0.070142 -4.042510 -3.024512 -53.974037 -34.245464 0.596896 -75.885170 4.072348 8.676934 2.780147 1.082437 -3.525366 23.590815 24.989140 -7.761557 18.151804 -0.430468 2.284271 87.441872 -5.096054 7.819676 -2.931101 -7.399030 -3.464015 -4.206062 5.054420 5.213298 12.965200 -3.751395 18.576654 -8.779120 0.023879 -0.171667 -9.382771 -10.699820 -10.487095 36.980835 5.546543 5.050309 -0.933343 -0.033496 5.308774 
-1.449960 49.782108 2.392539 0.509506 -4.026267 -11.014414 0.000000 0.000000 0.000000 -4.128726 -1.090760 2.054939 -1.770829 -1.659837 1.123424 12.377049 3.990451 -2.466521 0.069073 -3.377978 -3.139663 -52.095222 -40.997295 -2.768140 -77.666344 4.171001 9.317703 6.096171 -1.093355 -3.671004 28.043488 24.995792 -8.798229 16.026417 -0.946021 -9.847591 91.206955 -3.516357 6.426362 -6.005155 -8.096031 -3.336479 -4.255942 5.680602 5.615378 13.135243 -3.832587 17.804003 -8.935408 0.014989 -0.143624 -10.387589 -11.049976 -10.097728 38.240944 5.693293 9.284575 0.964217 0.037405 4.001143 
-1.480536 49.765144 2.440764 0.410846 -4.391249 -10.970796 0.000000 0.000000 0.000000 -4.001413 -0.932447 2.069430 -1.570866 -1.435276 1.113421 12.009540 4.117256 -2.476943 -0.202877 -2.531872 -3.039744 -49.378502 -47.620773 -5.855381 -79.195900 4.267096 8.980632 13.323028 -3.537595 -4.209380 33.243584 24.333538 -9.599744 12.839817 -2.702637 -21.413364 94.268898 -0.970608 3.303737 -13.882526 -8.438397 -2.967639 -4.345614 6.044483 5.794399 13.883178 -3.741897 17.856689 -9.373985 0.034399 -0.382477 -10.886020 -11.480398 -9.266945 38.722187 5.494676 13.242521 2.145006 0.087809 3.204810 
-1.561476 49.765839 2.481412 0.548508 -4.522759 -11.149079 0.000000 0.000000 0.000000 -4.098257 -0.779803 2.231590 -1.543076 -1.347335 1.250343 11.411721 4.166039 -2.476941 -0.157402 -1.986562 -3.126840 -46.526653 -53.883293 -9.081257 -79.938080 4.296316 8.760007 16.592255 -4.106509 -4.479897 39.069481 22.503185 -10.397295 10.038606 -4.351239 -31.697870 95.243576 2.279749 -3.745449 -26.780796 -2.813218 -3.634157 -4.424141 6.318578 5.959249 14.134793 -3.757497 17.865410 -9.607015 0.038009 -0.564387 -11.401920 -12.200799 -8.666727 38.062546 5.156596 15.249159 3.060945 0.121288 3.836812 
-1.641283 49.809601 2.549721 0.529177 -4.618416 -11.160384 0.000000 0.000000 0.000000 -4.117328 -0.626621 2.295609 -1.601268 -1.298504 1.279411 11.283548 4.614348 -2.615463 -0.225401 -1.083073 -3.125531 -44.950806 -60.516739 -11.096465 -78.991913 4.235704 7.781899 22.290030 -6.195374 -5.239939 44.931828 18.617750 -10.177294 10.203473 -6.349298 -42.017483 97.539154 5.172935 -8.070903 -40.696613 -2.741530 -3.736652 -3.905810 6.444425 6.065454 13.527431 -3.677847 17.694073 -9.430995 0.064240 -0.627078 -11.128582 -13.118320 -8.532316 35.547684 4.551371 13.125278 4.067213 0.255641 6.938822 
-1.770954 49.827980 2.591815 0.760747 -4.636954 -11.199315 0.000000 0.000000 0.000000 -4.321915 -0.443353 2.366596 -1.862759 -1.200873 1.279425 11.112797 4.858082 -2.655992 -0.182799 -0.116621 -3.300758 -45.313297 -67.368195 -10.971280 -76.277977 3.906399 4.633636 26.960007 -7.730980 -5.994939 44.998074 14.600397 -9.713675 9.272050 -8.553285 -48.497459 97.870781 8.107863 -13.397656 -55.246639 4.770183 -7.624255 -3.912965 6.653654 6.111214 13.384615 -3.663460 17.862486 -9.428580 0.064113 -0.831985 -10.272825 -13.875484 -8.557711 31.302452 3.808632 10.154949 4.780445 0.455186 10.285023 
